<svg xmlns="http://www.w3.org/2000/svg" width="414" height="144" viewBox="0 0 414 144" font-family="-apple-system,Segoe UI,Helvetica,Arial,sans-serif">
<text x="30" y="14" font-size="10" fill="#768390">1月</text>
<text x="72" y="14" font-size="10" fill="#768390">2月</text>
<text x="128" y="14" font-size="10" fill="#768390">3月</text>
<text x="198" y="14" font-size="10" fill="#768390">4月</text>
<text x="254" y="14" font-size="10" fill="#768390">5月</text>
<text x="324" y="14" font-size="10" fill="#768390">6月</text>
<text x="380" y="14" font-size="10" fill="#768390">7月</text>
<text x="6" y="44" font-size="9" fill="#768390">一</text>
<text x="6" y="72" font-size="9" fill="#768390">三</text>
<text x="6" y="100" font-size="9" fill="#768390">五</text>
<rect x="30" y="20" width="11" height="11" rx="2" ry="2" fill="#ebedf0"><title>2026-01-11：0 次提交</title></rect>
<rect x="30" y="34" width="11" height="11" rx="2" ry="2" fill="#ebedf0"><title>2026-01-12：0 次提交</title></rect>
<rect x="30" y="48" width="11" height="11" rx="2" ry="2" fill="#ebedf0"><title>2026-01-13：0 次提交</title></rect>
<rect x="30" y="62" width="11" height="11" rx="2" ry="2" fill="#ebedf0"><title>2026-01-14：0 次提交</title></rect>
<rect x="30" y="76" width="11" height="11" rx="2" ry="2" fill="#ebedf0"><title>2026-01-15：0 次提交</title></rect>
<rect x="30" y="90" width="11" height="11" rx="2" ry="2" fill="#ebedf0"><title>2026-01-16：0 次提交</title></rect>
<rect x="30" y="104" width="11" height="11" rx="2" ry="2" fill="#ebedf0"><title>2026-01-17：0 次提交</title></rect>
<rect x="44" y="20" width="11" height="11" rx="2" ry="2" fill="#ebedf0"><title>2026-01-18：0 次提交</title></rect>
<rect x="44" y="34" width="11" height="11" rx="2" ry="2" fill="#ebedf0"><title>2026-01-19：0 次提交</title></rect>
<rect x="44" y="48" width="11" height="11" rx="2" ry="2" fill="#ebedf0"><title>2026-01-20：0 次提交</title></rect>
<rect x="44" y="62" width="11" height="11" rx="2" ry="2" fill="#ebedf0"><title>2026-01-21：0 次提交</title></rect>
<rect x="44" y="76" width="11" height="11" rx="2" ry="2" fill="#ebedf0"><title>2026-01-22：0 次提交</title></rect>
<rect x="44" y="90" width="11" height="11" rx="2" ry="2" fill="#ebedf0"><title>2026-01-23：0 次提交</title></rect>
<rect x="44" y="104" width="11" height="11" rx="2" ry="2" fill="#ebedf0"><title>2026-01-24：0 次提交</title></rect>
<rect x="58" y="20" width="11" height="11" rx="2" ry="2" fill="#ebedf0"><title>2026-01-25：0 次提交</title></rect>
<rect x="58" y="34" width="11" height="11" rx="2" ry="2" fill="#216e39"><title>2026-01-26：15 次提交</title></rect>
<rect x="58" y="48" width="11" height="11" rx="2" ry="2" fill="#40c463"><title>2026-01-27：3 次提交</title></rect>
<rect x="58" y="62" width="11" height="11" rx="2" ry="2" fill="#ebedf0"><title>2026-01-28：0 次提交</title></rect>
<rect x="58" y="76" width="11" height="11" rx="2" ry="2" fill="#ebedf0"><title>2026-01-29：0 次提交</title></rect>
<rect x="58" y="90" width="11" height="11" rx="2" ry="2" fill="#9be9a8"><title>2026-01-30：1 次提交</title></rect>
<rect x="58" y="104" width="11" height="11" rx="2" ry="2" fill="#216e39"><title>2026-01-31：9 次提交</title></rect>
<rect x="72" y="20" width="11" height="11" rx="2" ry="2" fill="#ebedf0"><title>2026-02-01：0 次提交</title></rect>
<rect x="72" y="34" width="11" height="11" rx="2" ry="2" fill="#ebedf0"><title>2026-02-02：0 次提交</title></rect>
<rect x="72" y="48" width="11" height="11" rx="2" ry="2" fill="#ebedf0"><title>2026-02-03：0 次提交</title></rect>
<rect x="72" y="62" width="11" height="11" rx="2" ry="2" fill="#ebedf0"><title>2026-02-04：0 次提交</title></rect>
<rect x="72" y="76" width="11" height="11" rx="2" ry="2" fill="#9be9a8"><title>2026-02-05：1 次提交</title></rect>
<rect x="72" y="90" width="11" height="11" rx="2" ry="2" fill="#ebedf0"><title>2026-02-06：0 次提交</title></rect>
<rect x="72" y="104" width="11" height="11" rx="2" ry="2" fill="#ebedf0"><title>2026-02-07：0 次提交</title></rect>
<rect x="86" y="20" width="11" height="11" rx="2" ry="2" fill="#ebedf0"><title>2026-02-08：0 次提交</title></rect>
<rect x="86" y="34" width="11" height="11" rx="2" ry="2" fill="#ebedf0"><title>2026-02-09：0 次提交</title></rect>
<rect x="86" y="48" width="11" height="11" rx="2" ry="2" fill="#ebedf0"><title>2026-02-10：0 次提交</title></rect>
<rect x="86" y="62" width="11" height="11" rx="2" ry="2" fill="#ebedf0"><title>2026-02-11：0 次提交</title></rect>
<rect x="86" y="76" width="11" height="11" rx="2" ry="2" fill="#ebedf0"><title>2026-02-12：0 次提交</title></rect>
<rect x="86" y="90" width="11" height="11" rx="2" ry="2" fill="#ebedf0"><title>2026-02-13：0 次提交</title></rect>
<rect x="86" y="104" width="11" height="11" rx="2" ry="2" fill="#ebedf0"><title>2026-02-14：0 次提交</title></rect>
<rect x="100" y="20" width="11" height="11" rx="2" ry="2" fill="#ebedf0"><title>2026-02-15：0 次提交</title></rect>
<rect x="100" y="34" width="11" height="11" rx="2" ry="2" fill="#ebedf0"><title>2026-02-16：0 次提交</title></rect>
<rect x="100" y="48" width="11" height="11" rx="2" ry="2" fill="#ebedf0"><title>2026-02-17：0 次提交</title></rect>
<rect x="100" y="62" width="11" height="11" rx="2" ry="2" fill="#ebedf0"><title>2026-02-18：0 次提交</title></rect>
<rect x="100" y="76" width="11" height="11" rx="2" ry="2" fill="#ebedf0"><title>2026-02-19：0 次提交</title></rect>
<rect x="100" y="90" width="11" height="11" rx="2" ry="2" fill="#ebedf0"><title>2026-02-20：0 次提交</title></rect>
<rect x="100" y="104" width="11" height="11" rx="2" ry="2" fill="#ebedf0"><title>2026-02-21：0 次提交</title></rect>
<rect x="114" y="20" width="11" height="11" rx="2" ry="2" fill="#9be9a8"><title>2026-02-22：1 次提交</title></rect>
<rect x="114" y="34" width="11" height="11" rx="2" ry="2" fill="#ebedf0"><title>2026-02-23：0 次提交</title></rect>
<rect x="114" y="48" width="11" height="11" rx="2" ry="2" fill="#30a14e"><title>2026-02-24：5 次提交</title></rect>
<rect x="114" y="62" width="11" height="11" rx="2" ry="2" fill="#216e39"><title>2026-02-25：9 次提交</title></rect>
<rect x="114" y="76" width="11" height="11" rx="2" ry="2" fill="#9be9a8"><title>2026-02-26：1 次提交</title></rect>
<rect x="114" y="90" width="11" height="11" rx="2" ry="2" fill="#40c463"><title>2026-02-27：2 次提交</title></rect>
<rect x="114" y="104" width="11" height="11" rx="2" ry="2" fill="#ebedf0"><title>2026-02-28：0 次提交</title></rect>
<rect x="128" y="20" width="11" height="11" rx="2" ry="2" fill="#30a14e"><title>2026-03-01：4 次提交</title></rect>
<rect x="128" y="34" width="11" height="11" rx="2" ry="2" fill="#30a14e"><title>2026-03-02：4 次提交</title></rect>
<rect x="128" y="48" width="11" height="11" rx="2" ry="2" fill="#9be9a8"><title>2026-03-03：1 次提交</title></rect>
<rect x="128" y="62" width="11" height="11" rx="2" ry="2" fill="#ebedf0"><title>2026-03-04：0 次提交</title></rect>
<rect x="128" y="76" width="11" height="11" rx="2" ry="2" fill="#ebedf0"><title>2026-03-05：0 次提交</title></rect>
<rect x="128" y="90" width="11" height="11" rx="2" ry="2" fill="#ebedf0"><title>2026-03-06：0 次提交</title></rect>
<rect x="128" y="104" width="11" height="11" rx="2" ry="2" fill="#ebedf0"><title>2026-03-07：0 次提交</title></rect>
<rect x="142" y="20" width="11" height="11" rx="2" ry="2" fill="#ebedf0"><title>2026-03-08：0 次提交</title></rect>
<rect x="142" y="34" width="11" height="11" rx="2" ry="2" fill="#ebedf0"><title>2026-03-09：0 次提交</title></rect>
<rect x="142" y="48" width="11" height="11" rx="2" ry="2" fill="#ebedf0"><title>2026-03-10：0 次提交</title></rect>
<rect x="142" y="62" width="11" height="11" rx="2" ry="2" fill="#ebedf0"><title>2026-03-11：0 次提交</title></rect>
<rect x="142" y="76" width="11" height="11" rx="2" ry="2" fill="#ebedf0"><title>2026-03-12：0 次提交</title></rect>
<rect x="142" y="90" width="11" height="11" rx="2" ry="2" fill="#ebedf0"><title>2026-03-13：0 次提交</title></rect>
<rect x="142" y="104" width="11" height="11" rx="2" ry="2" fill="#ebedf0"><title>2026-03-14：0 次提交</title></rect>
<rect x="156" y="20" width="11" height="11" rx="2" ry="2" fill="#ebedf0"><title>2026-03-15：0 次提交</title></rect>
<rect x="156" y="34" width="11" height="11" rx="2" ry="2" fill="#ebedf0"><title>2026-03-16：0 次提交</title></rect>
<rect x="156" y="48" width="11" height="11" rx="2" ry="2" fill="#ebedf0"><title>2026-03-17：0 次提交</title></rect>
<rect x="156" y="62" width="11" height="11" rx="2" ry="2" fill="#30a14e"><title>2026-03-18：4 次提交</title></rect>
<rect x="156" y="76" width="11" height="11" rx="2" ry="2" fill="#ebedf0"><title>2026-03-19：0 次提交</title></rect>
<rect x="156" y="90" width="11" height="11" rx="2" ry="2" fill="#ebedf0"><title>2026-03-20：0 次提交</title></rect>
<rect x="156" y="104" width="11" height="11" rx="2" ry="2" fill="#ebedf0"><title>2026-03-21：0 次提交</title></rect>
<rect x="170" y="20" width="11" height="11" rx="2" ry="2" fill="#ebedf0"><title>2026-03-22：0 次提交</title></rect>
<rect x="170" y="34" width="11" height="11" rx="2" ry="2" fill="#ebedf0"><title>2026-03-23：0 次提交</title></rect>
<rect x="170" y="48" width="11" height="11" rx="2" ry="2" fill="#40c463"><title>2026-03-24：2 次提交</title></rect>
<rect x="170" y="62" width="11" height="11" rx="2" ry="2" fill="#ebedf0"><title>2026-03-25：0 次提交</title></rect>
<rect x="170" y="76" width="11" height="11" rx="2" ry="2" fill="#ebedf0"><title>2026-03-26：0 次提交</title></rect>
<rect x="170" y="90" width="11" height="11" rx="2" ry="2" fill="#ebedf0"><title>2026-03-27：0 次提交</title></rect>
<rect x="170" y="104" width="11" height="11" rx="2" ry="2" fill="#ebedf0"><title>2026-03-28：0 次提交</title></rect>
<rect x="184" y="20" width="11" height="11" rx="2" ry="2" fill="#30a14e"><title>2026-03-29：6 次提交</title></rect>
<rect x="184" y="34" width="11" height="11" rx="2" ry="2" fill="#216e39"><title>2026-03-30：15 次提交</title></rect>
<rect x="184" y="48" width="11" height="11" rx="2" ry="2" fill="#40c463"><title>2026-03-31：2 次提交</title></rect>
<rect x="184" y="62" width="11" height="11" rx="2" ry="2" fill="#40c463"><title>2026-04-01：3 次提交</title></rect>
<rect x="184" y="76" width="11" height="11" rx="2" ry="2" fill="#30a14e"><title>2026-04-02：4 次提交</title></rect>
<rect x="184" y="90" width="11" height="11" rx="2" ry="2" fill="#ebedf0"><title>2026-04-03：0 次提交</title></rect>
<rect x="184" y="104" width="11" height="11" rx="2" ry="2" fill="#ebedf0"><title>2026-04-04：0 次提交</title></rect>
<rect x="198" y="20" width="11" height="11" rx="2" ry="2" fill="#ebedf0"><title>2026-04-05：0 次提交</title></rect>
<rect x="198" y="34" width="11" height="11" rx="2" ry="2" fill="#ebedf0"><title>2026-04-06：0 次提交</title></rect>
<rect x="198" y="48" width="11" height="11" rx="2" ry="2" fill="#ebedf0"><title>2026-04-07：0 次提交</title></rect>
<rect x="198" y="62" width="11" height="11" rx="2" ry="2" fill="#40c463"><title>2026-04-08：3 次提交</title></rect>
<rect x="198" y="76" width="11" height="11" rx="2" ry="2" fill="#9be9a8"><title>2026-04-09：1 次提交</title></rect>
<rect x="198" y="90" width="11" height="11" rx="2" ry="2" fill="#ebedf0"><title>2026-04-10：0 次提交</title></rect>
<rect x="198" y="104" width="11" height="11" rx="2" ry="2" fill="#ebedf0"><title>2026-04-11：0 次提交</title></rect>
<rect x="212" y="20" width="11" height="11" rx="2" ry="2" fill="#ebedf0"><title>2026-04-12：0 次提交</title></rect>
<rect x="212" y="34" width="11" height="11" rx="2" ry="2" fill="#ebedf0"><title>2026-04-13：0 次提交</title></rect>
<rect x="212" y="48" width="11" height="11" rx="2" ry="2" fill="#ebedf0"><title>2026-04-14：0 次提交</title></rect>
<rect x="212" y="62" width="11" height="11" rx="2" ry="2" fill="#ebedf0"><title>2026-04-15：0 次提交</title></rect>
<rect x="212" y="76" width="11" height="11" rx="2" ry="2" fill="#ebedf0"><title>2026-04-16：0 次提交</title></rect>
<rect x="212" y="90" width="11" height="11" rx="2" ry="2" fill="#40c463"><title>2026-04-17：2 次提交</title></rect>
<rect x="212" y="104" width="11" height="11" rx="2" ry="2" fill="#ebedf0"><title>2026-04-18：0 次提交</title></rect>
<rect x="226" y="20" width="11" height="11" rx="2" ry="2" fill="#40c463"><title>2026-04-19：2 次提交</title></rect>
<rect x="226" y="34" width="11" height="11" rx="2" ry="2" fill="#ebedf0"><title>2026-04-20：0 次提交</title></rect>
<rect x="226" y="48" width="11" height="11" rx="2" ry="2" fill="#ebedf0"><title>2026-04-21：0 次提交</title></rect>
<rect x="226" y="62" width="11" height="11" rx="2" ry="2" fill="#ebedf0"><title>2026-04-22：0 次提交</title></rect>
<rect x="226" y="76" width="11" height="11" rx="2" ry="2" fill="#ebedf0"><title>2026-04-23：0 次提交</title></rect>
<rect x="226" y="90" width="11" height="11" rx="2" ry="2" fill="#ebedf0"><title>2026-04-24：0 次提交</title></rect>
<rect x="226" y="104" width="11" height="11" rx="2" ry="2" fill="#ebedf0"><title>2026-04-25：0 次提交</title></rect>
<rect x="240" y="20" width="11" height="11" rx="2" ry="2" fill="#ebedf0"><title>2026-04-26：0 次提交</title></rect>
<rect x="240" y="34" width="11" height="11" rx="2" ry="2" fill="#ebedf0"><title>2026-04-27：0 次提交</title></rect>
<rect x="240" y="48" width="11" height="11" rx="2" ry="2" fill="#ebedf0"><title>2026-04-28：0 次提交</title></rect>
<rect x="240" y="62" width="11" height="11" rx="2" ry="2" fill="#ebedf0"><title>2026-04-29：0 次提交</title></rect>
<rect x="240" y="76" width="11" height="11" rx="2" ry="2" fill="#ebedf0"><title>2026-04-30：0 次提交</title></rect>
<rect x="240" y="90" width="11" height="11" rx="2" ry="2" fill="#ebedf0"><title>2026-05-01：0 次提交</title></rect>
<rect x="240" y="104" width="11" height="11" rx="2" ry="2" fill="#ebedf0"><title>2026-05-02：0 次提交</title></rect>
<rect x="254" y="20" width="11" height="11" rx="2" ry="2" fill="#ebedf0"><title>2026-05-03：0 次提交</title></rect>
<rect x="254" y="34" width="11" height="11" rx="2" ry="2" fill="#ebedf0"><title>2026-05-04：0 次提交</title></rect>
<rect x="254" y="48" width="11" height="11" rx="2" ry="2" fill="#ebedf0"><title>2026-05-05：0 次提交</title></rect>
<rect x="254" y="62" width="11" height="11" rx="2" ry="2" fill="#ebedf0"><title>2026-05-06：0 次提交</title></rect>
<rect x="254" y="76" width="11" height="11" rx="2" ry="2" fill="#ebedf0"><title>2026-05-07：0 次提交</title></rect>
<rect x="254" y="90" width="11" height="11" rx="2" ry="2" fill="#ebedf0"><title>2026-05-08：0 次提交</title></rect>
<rect x="254" y="104" width="11" height="11" rx="2" ry="2" fill="#ebedf0"><title>2026-05-09：0 次提交</title></rect>
<rect x="268" y="20" width="11" height="11" rx="2" ry="2" fill="#9be9a8"><title>2026-05-10：1 次提交</title></rect>
<rect x="268" y="34" width="11" height="11" rx="2" ry="2" fill="#9be9a8"><title>2026-05-11：1 次提交</title></rect>
<rect x="268" y="48" width="11" height="11" rx="2" ry="2" fill="#ebedf0"><title>2026-05-12：0 次提交</title></rect>
<rect x="268" y="62" width="11" height="11" rx="2" ry="2" fill="#ebedf0"><title>2026-05-13：0 次提交</title></rect>
<rect x="268" y="76" width="11" height="11" rx="2" ry="2" fill="#30a14e"><title>2026-05-14：4 次提交</title></rect>
<rect x="268" y="90" width="11" height="11" rx="2" ry="2" fill="#40c463"><title>2026-05-15：2 次提交</title></rect>
<rect x="268" y="104" width="11" height="11" rx="2" ry="2" fill="#ebedf0"><title>2026-05-16：0 次提交</title></rect>
<rect x="282" y="20" width="11" height="11" rx="2" ry="2" fill="#ebedf0"><title>2026-05-17：0 次提交</title></rect>
<rect x="282" y="34" width="11" height="11" rx="2" ry="2" fill="#ebedf0"><title>2026-05-18：0 次提交</title></rect>
<rect x="282" y="48" width="11" height="11" rx="2" ry="2" fill="#30a14e"><title>2026-05-19：5 次提交</title></rect>
<rect x="282" y="62" width="11" height="11" rx="2" ry="2" fill="#216e39"><title>2026-05-20：28 次提交</title></rect>
<rect x="282" y="76" width="11" height="11" rx="2" ry="2" fill="#40c463"><title>2026-05-21：2 次提交</title></rect>
<rect x="282" y="90" width="11" height="11" rx="2" ry="2" fill="#9be9a8"><title>2026-05-22：1 次提交</title></rect>
<rect x="282" y="104" width="11" height="11" rx="2" ry="2" fill="#ebedf0"><title>2026-05-23：0 次提交</title></rect>
<rect x="296" y="20" width="11" height="11" rx="2" ry="2" fill="#9be9a8"><title>2026-05-24：1 次提交</title></rect>
<rect x="296" y="34" width="11" height="11" rx="2" ry="2" fill="#30a14e"><title>2026-05-25：5 次提交</title></rect>
<rect x="296" y="48" width="11" height="11" rx="2" ry="2" fill="#40c463"><title>2026-05-26：2 次提交</title></rect>
<rect x="296" y="62" width="11" height="11" rx="2" ry="2" fill="#ebedf0"><title>2026-05-27：0 次提交</title></rect>
<rect x="296" y="76" width="11" height="11" rx="2" ry="2" fill="#9be9a8"><title>2026-05-28：1 次提交</title></rect>
<rect x="296" y="90" width="11" height="11" rx="2" ry="2" fill="#9be9a8"><title>2026-05-29：1 次提交</title></rect>
<rect x="296" y="104" width="11" height="11" rx="2" ry="2" fill="#ebedf0"><title>2026-05-30：0 次提交</title></rect>
<rect x="310" y="20" width="11" height="11" rx="2" ry="2" fill="#9be9a8"><title>2026-05-31：1 次提交</title></rect>
<rect x="310" y="34" width="11" height="11" rx="2" ry="2" fill="#ebedf0"><title>2026-06-01：0 次提交</title></rect>
<rect x="310" y="48" width="11" height="11" rx="2" ry="2" fill="#9be9a8"><title>2026-06-02：1 次提交</title></rect>
<rect x="310" y="62" width="11" height="11" rx="2" ry="2" fill="#ebedf0"><title>2026-06-03：0 次提交</title></rect>
<rect x="310" y="76" width="11" height="11" rx="2" ry="2" fill="#ebedf0"><title>2026-06-04：0 次提交</title></rect>
<rect x="310" y="90" width="11" height="11" rx="2" ry="2" fill="#40c463"><title>2026-06-05：2 次提交</title></rect>
<rect x="310" y="104" width="11" height="11" rx="2" ry="2" fill="#ebedf0"><title>2026-06-06：0 次提交</title></rect>
<rect x="324" y="20" width="11" height="11" rx="2" ry="2" fill="#ebedf0"><title>2026-06-07：0 次提交</title></rect>
<rect x="324" y="34" width="11" height="11" rx="2" ry="2" fill="#ebedf0"><title>2026-06-08：0 次提交</title></rect>
<rect x="324" y="48" width="11" height="11" rx="2" ry="2" fill="#ebedf0"><title>2026-06-09：0 次提交</title></rect>
<rect x="324" y="62" width="11" height="11" rx="2" ry="2" fill="#ebedf0"><title>2026-06-10：0 次提交</title></rect>
<rect x="324" y="76" width="11" height="11" rx="2" ry="2" fill="#ebedf0"><title>2026-06-11：0 次提交</title></rect>
<rect x="324" y="90" width="11" height="11" rx="2" ry="2" fill="#ebedf0"><title>2026-06-12：0 次提交</title></rect>
<rect x="324" y="104" width="11" height="11" rx="2" ry="2" fill="#ebedf0"><title>2026-06-13：0 次提交</title></rect>
<rect x="338" y="20" width="11" height="11" rx="2" ry="2" fill="#ebedf0"><title>2026-06-14：0 次提交</title></rect>
<rect x="338" y="34" width="11" height="11" rx="2" ry="2" fill="#ebedf0"><title>2026-06-15：0 次提交</title></rect>
<rect x="338" y="48" width="11" height="11" rx="2" ry="2" fill="#ebedf0"><title>2026-06-16：0 次提交</title></rect>
<rect x="338" y="62" width="11" height="11" rx="2" ry="2" fill="#ebedf0"><title>2026-06-17：0 次提交</title></rect>
<rect x="338" y="76" width="11" height="11" rx="2" ry="2" fill="#ebedf0"><title>2026-06-18：0 次提交</title></rect>
<rect x="338" y="90" width="11" height="11" rx="2" ry="2" fill="#ebedf0"><title>2026-06-19：0 次提交</title></rect>
<rect x="338" y="104" width="11" height="11" rx="2" ry="2" fill="#ebedf0"><title>2026-06-20：0 次提交</title></rect>
<rect x="352" y="20" width="11" height="11" rx="2" ry="2" fill="#ebedf0"><title>2026-06-21：0 次提交</title></rect>
<rect x="352" y="34" width="11" height="11" rx="2" ry="2" fill="#ebedf0"><title>2026-06-22：0 次提交</title></rect>
<rect x="352" y="48" width="11" height="11" rx="2" ry="2" fill="#ebedf0"><title>2026-06-23：0 次提交</title></rect>
<rect x="352" y="62" width="11" height="11" rx="2" ry="2" fill="#ebedf0"><title>2026-06-24：0 次提交</title></rect>
<rect x="352" y="76" width="11" height="11" rx="2" ry="2" fill="#ebedf0"><title>2026-06-25：0 次提交</title></rect>
<rect x="352" y="90" width="11" height="11" rx="2" ry="2" fill="#ebedf0"><title>2026-06-26：0 次提交</title></rect>
<rect x="352" y="104" width="11" height="11" rx="2" ry="2" fill="#ebedf0"><title>2026-06-27：0 次提交</title></rect>
<rect x="366" y="20" width="11" height="11" rx="2" ry="2" fill="#ebedf0"><title>2026-06-28：0 次提交</title></rect>
<rect x="366" y="34" width="11" height="11" rx="2" ry="2" fill="#ebedf0"><title>2026-06-29：0 次提交</title></rect>
<rect x="366" y="48" width="11" height="11" rx="2" ry="2" fill="#ebedf0"><title>2026-06-30：0 次提交</title></rect>
<rect x="366" y="62" width="11" height="11" rx="2" ry="2" fill="#ebedf0"><title>2026-07-01：0 次提交</title></rect>
<rect x="366" y="76" width="11" height="11" rx="2" ry="2" fill="#40c463"><title>2026-07-02：3 次提交</title></rect>
<rect x="366" y="90" width="11" height="11" rx="2" ry="2" fill="#216e39"><title>2026-07-03：8 次提交</title></rect>
<rect x="366" y="104" width="11" height="11" rx="2" ry="2" fill="#ebedf0"><title>2026-07-04：0 次提交</title></rect>
<rect x="380" y="20" width="11" height="11" rx="2" ry="2" fill="#ebedf0"><title>2026-07-05：0 次提交</title></rect>
<rect x="380" y="34" width="11" height="11" rx="2" ry="2" fill="#216e39"><title>2026-07-06：20 次提交</title></rect>
<rect x="380" y="48" width="11" height="11" rx="2" ry="2" fill="#216e39"><title>2026-07-07：63 次提交</title></rect>
<rect x="380" y="62" width="11" height="11" rx="2" ry="2" fill="#216e39"><title>2026-07-08：24 次提交</title></rect>
<rect x="380" y="76" width="11" height="11" rx="2" ry="2" fill="#ebedf0"><title>2026-07-09：0 次提交</title></rect>
<rect x="380" y="90" width="11" height="11" rx="2" ry="2" fill="#ebedf0"><title>2026-07-10：0 次提交</title></rect>
<rect x="380" y="104" width="11" height="11" rx="2" ry="2" fill="#40c463"><title>2026-07-11：2 次提交</title></rect>
<rect x="394" y="20" width="11" height="11" rx="2" ry="2" fill="#ebedf0"><title>2026-07-12：0 次提交</title></rect>
<rect x="394" y="34" width="11" height="11" rx="2" ry="2" fill="#ebedf0"><title>2026-07-13：0 次提交</title></rect>
<rect x="394" y="48" width="11" height="11" rx="2" ry="2" fill="#ebedf0"><title>2026-07-14：0 次提交</title></rect>
<rect x="394" y="62" width="11" height="11" rx="2" ry="2" fill="#30a14e"><title>2026-07-15：5 次提交</title></rect>
<rect x="394" y="76" width="11" height="11" rx="2" ry="2" fill="#9be9a8"><title>2026-07-16：1 次提交</title></rect>
<text x="294" y="139" font-size="9" fill="#768390">少</text>
<rect x="314" y="130" width="11" height="11" rx="2" ry="2" fill="#ebedf0"/>
<rect x="328" y="130" width="11" height="11" rx="2" ry="2" fill="#9be9a8"/>
<rect x="342" y="130" width="11" height="11" rx="2" ry="2" fill="#40c463"/>
<rect x="356" y="130" width="11" height="11" rx="2" ry="2" fill="#30a14e"/>
<rect x="370" y="130" width="11" height="11" rx="2" ry="2" fill="#216e39"/>
<text x="386" y="139" font-size="9" fill="#768390">多</text>
</svg>